<svg width="185" height="24" viewBox="0 0 185 24" fill="none" xmlns="http://www.w3.org/2000/svg">
<path d="M8.97881 23.448C7.44281 23.448 6.04548 23.1067 4.78681 22.424C3.54948 21.72 2.55748 20.7067 1.81081 19.384C1.08548 18.04 0.72281 16.408 0.72281 14.488V9.112C0.72281 6.232 1.53348 4.024 3.15481 2.488C4.77614 0.930665 6.97348 0.151999 9.74681 0.151999C12.4988 0.151999 14.6215 0.887999 16.1148 2.36C17.6295 3.81067 18.3868 5.784 18.3868 8.28V8.408H14.2268V8.152C14.2268 7.36267 14.0561 6.648 13.7148 6.008C13.3948 5.368 12.9041 4.86667 12.2428 4.504C11.5815 4.12 10.7495 3.928 9.74681 3.928C8.25348 3.928 7.08014 4.38667 6.22681 5.304C5.37348 6.22133 4.94681 7.46933 4.94681 9.048V14.552C4.94681 16.1093 5.37348 17.368 6.22681 18.328C7.08014 19.2667 8.27481 19.736 9.81081 19.736C11.3468 19.736 12.4668 19.3307 13.1708 18.52C13.8748 17.7093 14.2268 16.6853 14.2268 15.448V15.128H8.91481V11.544H18.3868V23H14.4828V20.856H13.9068C13.7575 21.2187 13.5121 21.6027 13.1708 22.008C12.8508 22.4133 12.3601 22.7547 11.6988 23.032C11.0375 23.3093 10.1308 23.448 8.97881 23.448ZM35.8623 23.448C34.0276 23.448 32.449 23.1173 31.1263 22.456C29.825 21.7733 28.8223 20.8133 28.1183 19.576C27.4356 18.3173 27.0943 16.8347 27.0943 15.128V0.599998H31.3183V15.256C31.3183 16.6213 31.7023 17.6987 32.4703 18.488C33.2596 19.2773 34.3903 19.672 35.8623 19.672C37.3343 19.672 38.4543 19.2773 39.2223 18.488C40.0116 17.6987 40.4063 16.6213 40.4063 15.256V0.599998H44.6303V15.128C44.6303 16.8347 44.2783 18.3173 43.5743 19.576C42.8916 20.8133 41.889 21.7733 40.5663 22.456C39.265 23.1173 37.697 23.448 35.8623 23.448ZM53.5223 23V0.599998H57.7463V23H53.5223ZM66.7598 23V0.599998H70.9838V19.16H81.2238V23H66.7598ZM88.2636 23V19.288H91.2076V4.312H88.2636V0.599998H97.4796C100.488 0.599998 102.77 1.368 104.328 2.904C105.906 4.41867 106.696 6.68 106.696 9.688V13.912C106.696 16.92 105.906 19.192 104.328 20.728C102.77 22.2427 100.488 23 97.4796 23H88.2636ZM95.4316 19.16H97.5436C99.2502 19.16 100.498 18.712 101.288 17.816C102.077 16.92 102.472 15.6613 102.472 14.04V9.56C102.472 7.91733 102.077 6.65867 101.288 5.784C100.498 4.888 99.2502 4.44 97.5436 4.44H95.4316V19.16ZM115.016 23V0.599998H119.24V9.848H127.56V0.599998H131.784V23H127.56V13.688H119.24V23H115.016ZM149.456 23.448C147.621 23.448 146.043 23.1173 144.72 22.456C143.419 21.7733 142.416 20.8133 141.712 19.576C141.029 18.3173 140.688 16.8347 140.688 15.128V0.599998H144.912V15.256C144.912 16.6213 145.296 17.6987 146.064 18.488C146.853 19.2773 147.984 19.672 149.456 19.672C150.928 19.672 152.048 19.2773 152.816 18.488C153.605 17.6987 154 16.6213 154 15.256V0.599998H158.224V15.128C158.224 16.8347 157.872 18.3173 157.168 19.576C156.485 20.8133 155.483 21.7733 154.16 22.456C152.859 23.1173 151.291 23.448 149.456 23.448ZM166.476 23V19.288H169.42V4.312H166.476V0.599998H177.996C179.361 0.599998 180.545 0.834665 181.548 1.304C182.572 1.752 183.361 2.40267 183.916 3.256C184.492 4.088 184.78 5.09067 184.78 6.264V6.584C184.78 7.608 184.588 8.45067 184.204 9.112C183.82 9.752 183.361 10.2533 182.828 10.616C182.316 10.9573 181.825 11.2027 181.356 11.352V11.928C181.825 12.056 182.337 12.3013 182.892 12.664C183.447 13.0053 183.916 13.5067 184.3 14.168C184.705 14.8293 184.908 15.6933 184.908 16.76V17.08C184.908 18.3173 184.62 19.384 184.044 20.28C183.468 21.1547 182.668 21.8267 181.644 22.296C180.641 22.7653 179.468 23 178.124 23H166.476ZM173.644 19.16H177.612C178.529 19.16 179.265 18.936 179.82 18.488C180.396 18.04 180.684 17.4 180.684 16.568V16.248C180.684 15.416 180.407 14.776 179.852 14.328C179.297 13.88 178.551 13.656 177.612 13.656H173.644V19.16ZM173.644 9.816H177.548C178.423 9.816 179.137 9.592 179.692 9.144C180.268 8.696 180.556 8.07733 180.556 7.288V6.968C180.556 6.15733 180.279 5.53867 179.724 5.112C179.169 4.664 178.444 4.44 177.548 4.44H173.644V9.816Z" fill="#A6E69E"/>
</svg>
