<svg width="211" height="33" viewBox="0 0 211 33" fill="none" xmlns="http://www.w3.org/2000/svg">
<path d="M4.04607 32.872C3.08607 32.872 2.29674 32.5627 1.67807 31.944C1.08074 31.3467 0.782068 30.568 0.782068 29.608V4.072C0.782068 3.112 1.08074 2.33333 1.67807 1.736C2.29674 1.11733 3.08607 0.807999 4.04607 0.807999H9.48607V4.264H5.55007C4.97407 4.264 4.68607 4.584 4.68607 5.224V28.456C4.68607 29.096 4.97407 29.416 5.55007 29.416H9.48607V32.872H4.04607ZM24.6668 25.448C23.1308 25.448 21.7335 25.1067 20.4748 24.424C19.2375 23.72 18.2455 22.7067 17.4988 21.384C16.7735 20.04 16.4108 18.408 16.4108 16.488V11.112C16.4108 8.232 17.2215 6.024 18.8428 4.488C20.4642 2.93067 22.6615 2.152 25.4348 2.152C28.1868 2.152 30.3095 2.888 31.8028 4.36C33.3175 5.81067 34.0748 7.784 34.0748 10.28V10.408H29.9148V10.152C29.9148 9.36267 29.7442 8.648 29.4028 8.008C29.0828 7.368 28.5922 6.86667 27.9308 6.504C27.2695 6.12 26.4375 5.928 25.4348 5.928C23.9415 5.928 22.7682 6.38667 21.9148 7.304C21.0615 8.22133 20.6348 9.46933 20.6348 11.048V16.552C20.6348 18.1093 21.0615 19.368 21.9148 20.328C22.7682 21.2667 23.9628 21.736 25.4988 21.736C27.0348 21.736 28.1548 21.3307 28.8588 20.52C29.5628 19.7093 29.9148 18.6853 29.9148 17.448V17.128H24.6028V13.544H34.0748V25H30.1708V22.856H29.5948C29.4455 23.2187 29.2002 23.6027 28.8588 24.008C28.5388 24.4133 28.0482 24.7547 27.3868 25.032C26.7255 25.3093 25.8188 25.448 24.6668 25.448ZM51.5503 25.448C49.7157 25.448 48.137 25.1173 46.8143 24.456C45.513 23.7733 44.5103 22.8133 43.8063 21.576C43.1237 20.3173 42.7823 18.8347 42.7823 17.128V2.6H47.0063V17.256C47.0063 18.6213 47.3903 19.6987 48.1583 20.488C48.9477 21.2773 50.0783 21.672 51.5503 21.672C53.0223 21.672 54.1423 21.2773 54.9103 20.488C55.6997 19.6987 56.0943 18.6213 56.0943 17.256V2.6H60.3183V17.128C60.3183 18.8347 59.9663 20.3173 59.2623 21.576C58.5797 22.8133 57.577 23.7733 56.2543 24.456C54.953 25.1173 53.385 25.448 51.5503 25.448ZM69.2103 25V2.6H73.4343V25H69.2103ZM82.4478 25V2.6H86.6718V21.16H96.9118V25H82.4478ZM103.952 25V21.288H106.896V6.312H103.952V2.6H113.168C116.176 2.6 118.458 3.368 120.016 4.904C121.594 6.41867 122.384 8.68 122.384 11.688V15.912C122.384 18.92 121.594 21.192 120.016 22.728C118.458 24.2427 116.176 25 113.168 25H103.952ZM111.12 21.16H113.232C114.938 21.16 116.186 20.712 116.976 19.816C117.765 18.92 118.16 17.6613 118.16 16.04V11.56C118.16 9.91733 117.765 8.65867 116.976 7.784C116.186 6.888 114.938 6.44 113.232 6.44H111.12V21.16ZM128.981 25L134.869 2.6H142.229L148.117 25H143.765L142.549 20.072H134.549L133.333 25H128.981ZM135.541 16.168H141.557L138.837 5.256H138.261L135.541 16.168ZM155.598 25V2.6H164.814C166.222 2.6 167.459 2.888 168.526 3.464C169.614 4.01867 170.456 4.808 171.054 5.832C171.672 6.856 171.982 8.072 171.982 9.48V9.928C171.982 11.3147 171.662 12.5307 171.022 13.576C170.403 14.6 169.55 15.4 168.462 15.976C167.395 16.5307 166.179 16.808 164.814 16.808H159.822V25H155.598ZM159.822 12.968H164.398C165.4 12.968 166.211 12.6907 166.83 12.136C167.448 11.5813 167.758 10.824 167.758 9.864V9.544C167.758 8.584 167.448 7.82667 166.83 7.272C166.211 6.71733 165.4 6.44 164.398 6.44H159.822V12.968ZM179.71 25V2.6H188.926C190.334 2.6 191.572 2.888 192.638 3.464C193.726 4.01867 194.569 4.808 195.166 5.832C195.785 6.856 196.094 8.072 196.094 9.48V9.928C196.094 11.3147 195.774 12.5307 195.134 13.576C194.516 14.6 193.662 15.4 192.574 15.976C191.508 16.5307 190.292 16.808 188.926 16.808H183.934V25H179.71ZM183.934 12.968H188.51C189.513 12.968 190.324 12.6907 190.942 12.136C191.561 11.5813 191.87 10.824 191.87 9.864V9.544C191.87 8.584 191.561 7.82667 190.942 7.272C190.324 6.71733 189.513 6.44 188.51 6.44H183.934V12.968ZM202.223 32.872V29.416H206.159C206.735 29.416 207.023 29.096 207.023 28.456V5.224C207.023 4.584 206.735 4.264 206.159 4.264H202.223V0.807999H207.663C208.623 0.807999 209.401 1.11733 209.999 1.736C210.617 2.33333 210.927 3.112 210.927 4.072V29.608C210.927 30.568 210.617 31.3467 209.999 31.944C209.401 32.5627 208.623 32.872 207.663 32.872H202.223Z" fill="#A6E69E"/>
</svg>
